<mxfile host="app.diagrams.net" modified="2021-06-28T06:49:41.396Z" agent="5.0 (Macintosh; Intel Mac OS X 10_15_7) AppleWebKit/537.36 (KHTML, like Gecko) Chrome/91.0.4472.114 Safari/537.36" etag="edqD4lN1k7iVCSJ99Z3g" version="14.7.9" type="github">
  <diagram id="prtHgNgQTEPvFCAcTncT" name="Page-1">
    <mxGraphModel dx="1425" dy="779" grid="1" gridSize="10" guides="1" tooltips="1" connect="1" arrows="1" fold="1" page="1" pageScale="1" pageWidth="827" pageHeight="1169" math="0" shadow="0">
      <root>
        <mxCell id="0" />
        <mxCell id="1" parent="0" />
        <mxCell id="dNxyNK7c78bLwvsdeMH5-11" value="Orgchart" style="swimlane;html=1;startSize=20;horizontal=1;containerType=tree;glass=0;" parent="1" vertex="1">
          <mxGeometry x="40" y="80" width="710" height="290" as="geometry" />
        </mxCell>
        <UserObject label="%name%&lt;br&gt;&lt;i style=&quot;color: gray&quot;&gt;%position%&lt;/i&gt;&lt;br&gt;&lt;a href=&quot;mailto:%email%&quot;&gt;Email&lt;/a&gt;" name="Tessa Miller" position="CFO" location="Office 1" email="me@example.com" placeholders="1" link="https://www.draw.io" id="dNxyNK7c78bLwvsdeMH5-12">
          <mxCell style="label;image=https://cdn3.iconfinder.com/data/icons/user-avatars-1/512/users-3-128.png;whiteSpace=wrap;html=1;rounded=0;glass=0;treeMoving=1;treeFolding=1;" parent="dNxyNK7c78bLwvsdeMH5-11" vertex="1">
            <mxGeometry x="260" y="50" width="180" height="70" as="geometry" />
          </mxCell>
        </UserObject>
        <mxCell id="dNxyNK7c78bLwvsdeMH5-13" value="" style="endArrow=blockThin;endFill=1;fontSize=11;edgeStyle=elbowEdgeStyle;elbow=vertical;rounded=0;" parent="dNxyNK7c78bLwvsdeMH5-11" source="dNxyNK7c78bLwvsdeMH5-12" target="dNxyNK7c78bLwvsdeMH5-14" edge="1">
          <mxGeometry relative="1" as="geometry" />
        </mxCell>
        <UserObject label="%name%&lt;br&gt;&lt;i style=&quot;color: gray&quot;&gt;%position%&lt;/i&gt;&lt;br&gt;&lt;a href=&quot;mailto:%email%&quot;&gt;Email&lt;/a&gt;" name="Edward Morrison" position="Brand Manager" location="Office 2" email="me@example.com" placeholders="1" link="https://www.draw.io" id="dNxyNK7c78bLwvsdeMH5-14">
          <mxCell style="label;image=https://cdn3.iconfinder.com/data/icons/user-avatars-1/512/users-10-3-128.png;whiteSpace=wrap;html=1;rounded=0;glass=0;treeFolding=1;treeMoving=1;" parent="dNxyNK7c78bLwvsdeMH5-11" vertex="1">
            <mxGeometry x="40" y="180" width="180" height="80" as="geometry" />
          </mxCell>
        </UserObject>
        <mxCell id="dNxyNK7c78bLwvsdeMH5-15" value="" style="endArrow=blockThin;endFill=1;fontSize=11;edgeStyle=elbowEdgeStyle;elbow=vertical;rounded=0;" parent="dNxyNK7c78bLwvsdeMH5-11" source="dNxyNK7c78bLwvsdeMH5-12" target="dNxyNK7c78bLwvsdeMH5-16" edge="1">
          <mxGeometry relative="1" as="geometry" />
        </mxCell>
        <UserObject label="%name%&lt;br&gt;&lt;i style=&quot;color: gray&quot;&gt;%position%&lt;/i&gt;&lt;br&gt;&lt;a href=&quot;mailto:%email%&quot;&gt;Email&lt;/a&gt;" name="Evan Valet" position="HR Director" location="Office 4" email="me@example.com" placeholders="1" link="https://www.draw.io" id="dNxyNK7c78bLwvsdeMH5-16">
          <mxCell style="label;image=https://cdn3.iconfinder.com/data/icons/user-avatars-1/512/users-9-2-128.png;whiteSpace=wrap;html=1;rounded=0;glass=0;treeFolding=1;treeMoving=1;" parent="dNxyNK7c78bLwvsdeMH5-11" vertex="1">
            <mxGeometry x="260" y="180" width="180" height="80" as="geometry" />
          </mxCell>
        </UserObject>
        <mxCell id="dNxyNK7c78bLwvsdeMH5-17" value="" style="endArrow=blockThin;endFill=1;fontSize=11;edgeStyle=elbowEdgeStyle;elbow=vertical;rounded=0;" parent="dNxyNK7c78bLwvsdeMH5-11" source="dNxyNK7c78bLwvsdeMH5-12" target="dNxyNK7c78bLwvsdeMH5-18" edge="1">
          <mxGeometry relative="1" as="geometry" />
        </mxCell>
        <UserObject label="%name%&lt;br&gt;&lt;i style=&quot;color: gray&quot;&gt;%position%&lt;/i&gt;&lt;br&gt;&lt;a href=&quot;mailto:%email%&quot;&gt;Email&lt;/a&gt;" name="Alison Donovan" position="System Admin" location="Office 3" email="me@example.com" placeholders="1" link="https://www.draw.io" id="dNxyNK7c78bLwvsdeMH5-18">
          <mxCell style="label;image=https://cdn3.iconfinder.com/data/icons/user-avatars-1/512/users-2-128.png;whiteSpace=wrap;html=1;rounded=0;glass=0;" parent="dNxyNK7c78bLwvsdeMH5-11" vertex="1">
            <mxGeometry x="490" y="180" width="180" height="80" as="geometry" />
          </mxCell>
        </UserObject>
        <mxCell id="3tNAwGUX28gLjgbRkF9K-8" style="edgeStyle=orthogonalEdgeStyle;rounded=0;orthogonalLoop=1;jettySize=auto;html=1;exitX=0.5;exitY=1;exitDx=0;exitDy=0;entryX=0.5;entryY=0;entryDx=0;entryDy=0;fontSize=11;" edge="1" parent="1" source="3tNAwGUX28gLjgbRkF9K-1" target="3tNAwGUX28gLjgbRkF9K-7">
          <mxGeometry relative="1" as="geometry" />
        </mxCell>
        <mxCell id="3tNAwGUX28gLjgbRkF9K-1" value="&lt;pre style=&quot;background-color: #2b2b2b ; color: #a9b7c6 ; font-family: &amp;#34;jetbrains mono&amp;#34; , monospace ; font-size: 9.8pt&quot;&gt;&lt;pre style=&quot;font-family: &amp;#34;jetbrains mono&amp;#34; , monospace ; font-size: 9.8pt&quot;&gt;ServiceLoader&lt;/pre&gt;&lt;/pre&gt;&lt;pre style=&quot;background-color: #2b2b2b ; color: #a9b7c6 ; font-family: &amp;#34;jetbrains mono&amp;#34; , monospace ; font-size: 9.8pt&quot;&gt;ServiceLoader.&lt;span style=&quot;font-style: italic&quot;&gt;load&lt;/span&gt;(SPIClient.&lt;span style=&quot;color: #cc7832&quot;&gt;class&lt;/span&gt;)&lt;/pre&gt;" style="rounded=0;whiteSpace=wrap;html=1;" vertex="1" parent="1">
          <mxGeometry x="170" y="460" width="290" height="60" as="geometry" />
        </mxCell>
        <mxCell id="3tNAwGUX28gLjgbRkF9K-2" value="" style="shape=curlyBracket;whiteSpace=wrap;html=1;rounded=1;" vertex="1" parent="1">
          <mxGeometry x="470" y="430" width="20" height="120" as="geometry" />
        </mxCell>
        <mxCell id="3tNAwGUX28gLjgbRkF9K-3" value="&lt;pre style=&quot;background-color: rgb(43, 43, 43); color: rgb(169, 183, 198); font-family: &amp;quot;jetbrains mono&amp;quot;, monospace; line-height: 100%; font-size: 11px;&quot;&gt;&lt;font style=&quot;font-size: 11px;&quot;&gt;&lt;span style=&quot;color: rgb(204, 120, 50); font-size: 11px;&quot;&gt;private static final &lt;/span&gt;String &lt;span style=&quot;color: rgb(152, 118, 170); font-style: italic; font-size: 11px;&quot;&gt;PREFIX &lt;/span&gt;= &lt;span style=&quot;color: rgb(106, 135, 89); font-size: 11px;&quot;&gt;&quot;META-INF/services/&quot;&lt;/span&gt;&lt;span style=&quot;color: rgb(204, 120, 50); font-size: 11px;&quot;&gt;;&lt;br style=&quot;font-size: 11px;&quot;&gt;&lt;/span&gt;&lt;span style=&quot;color: rgb(204, 120, 50); font-size: 11px;&quot;&gt;&lt;br style=&quot;font-size: 11px;&quot;&gt;&lt;/span&gt;&lt;span style=&quot;color: rgb(128, 128, 128); font-size: 11px;&quot;&gt;// The class or interface representing the service being loaded&lt;br style=&quot;font-size: 11px;&quot;&gt;&lt;/span&gt;&lt;span style=&quot;color: rgb(204, 120, 50); font-size: 11px;&quot;&gt;private final &lt;/span&gt;Class&amp;lt;&lt;span style=&quot;color: rgb(80, 120, 116); font-size: 11px;&quot;&gt;S&lt;/span&gt;&amp;gt; &lt;span style=&quot;color: rgb(152, 118, 170); font-size: 11px;&quot;&gt;service&lt;/span&gt;&lt;span style=&quot;color: rgb(204, 120, 50); font-size: 11px;&quot;&gt;;&lt;br style=&quot;font-size: 11px;&quot;&gt;&lt;/span&gt;&lt;span style=&quot;color: rgb(204, 120, 50); font-size: 11px;&quot;&gt;&lt;br style=&quot;font-size: 11px;&quot;&gt;&lt;/span&gt;&lt;span style=&quot;color: rgb(128, 128, 128); font-size: 11px;&quot;&gt;// The class loader used to locate, load, and instantiate providers&lt;br style=&quot;font-size: 11px;&quot;&gt;&lt;/span&gt;&lt;span style=&quot;color: rgb(204, 120, 50); font-size: 11px;&quot;&gt;private final &lt;/span&gt;ClassLoader &lt;span style=&quot;color: rgb(152, 118, 170); font-size: 11px;&quot;&gt;loader&lt;/span&gt;&lt;span style=&quot;color: rgb(204, 120, 50); font-size: 11px;&quot;&gt;;&lt;br style=&quot;font-size: 11px;&quot;&gt;&lt;/span&gt;&lt;span style=&quot;color: rgb(204, 120, 50); font-size: 11px;&quot;&gt;&lt;br style=&quot;font-size: 11px;&quot;&gt;&lt;/span&gt;&lt;span style=&quot;color: rgb(128, 128, 128); font-size: 11px;&quot;&gt;// The access control context taken when the ServiceLoader is created&lt;br style=&quot;font-size: 11px;&quot;&gt;&lt;/span&gt;&lt;span style=&quot;color: rgb(204, 120, 50); font-size: 11px;&quot;&gt;private final &lt;/span&gt;AccessControlContext &lt;span style=&quot;color: rgb(152, 118, 170); font-size: 11px;&quot;&gt;acc&lt;/span&gt;&lt;span style=&quot;color: rgb(204, 120, 50); font-size: 11px;&quot;&gt;;&lt;br style=&quot;font-size: 11px;&quot;&gt;&lt;/span&gt;&lt;span style=&quot;color: rgb(204, 120, 50); font-size: 11px;&quot;&gt;&lt;br style=&quot;font-size: 11px;&quot;&gt;&lt;/span&gt;&lt;span style=&quot;color: rgb(128, 128, 128); font-size: 11px;&quot;&gt;// Cached providers, in instantiation order&lt;br style=&quot;font-size: 11px;&quot;&gt;&lt;/span&gt;&lt;span style=&quot;color: rgb(204, 120, 50); font-size: 11px;&quot;&gt;private &lt;/span&gt;LinkedHashMap&amp;lt;String&lt;span style=&quot;color: rgb(204, 120, 50); font-size: 11px;&quot;&gt;,&lt;/span&gt;&lt;span style=&quot;color: rgb(80, 120, 116); font-size: 11px;&quot;&gt;S&lt;/span&gt;&amp;gt; &lt;span style=&quot;color: rgb(152, 118, 170); font-size: 11px;&quot;&gt;providers &lt;/span&gt;= &lt;span style=&quot;color: rgb(204, 120, 50); font-size: 11px;&quot;&gt;new &lt;/span&gt;LinkedHashMap&amp;lt;&amp;gt;()&lt;span style=&quot;color: rgb(204, 120, 50); font-size: 11px;&quot;&gt;;&lt;br style=&quot;font-size: 11px;&quot;&gt;&lt;/span&gt;&lt;span style=&quot;color: rgb(204, 120, 50); font-size: 11px;&quot;&gt;&lt;br style=&quot;font-size: 11px;&quot;&gt;&lt;/span&gt;&lt;span style=&quot;color: rgb(128, 128, 128); font-size: 11px;&quot;&gt;// The current lazy-lookup iterator&lt;br style=&quot;font-size: 11px;&quot;&gt;&lt;/span&gt;&lt;span style=&quot;color: rgb(204, 120, 50); font-size: 11px;&quot;&gt;private &lt;/span&gt;LazyIterator &lt;span style=&quot;color: rgb(152, 118, 170); font-size: 11px;&quot;&gt;lookupIterator&lt;/span&gt;&lt;/font&gt;&lt;span style=&quot;color: rgb(204, 120, 50); font-size: 11px;&quot;&gt;&lt;font style=&quot;font-size: 11px;&quot;&gt;;&lt;/font&gt;&lt;span style=&quot;font-size: 11px;&quot;&gt;&lt;br style=&quot;font-size: 11px;&quot;&gt;&lt;/span&gt;&lt;/span&gt;&lt;/pre&gt;" style="text;html=1;align=left;verticalAlign=middle;resizable=0;points=[];autosize=1;strokeColor=none;fontSize=11;" vertex="1" parent="1">
          <mxGeometry x="500" y="400" width="510" height="220" as="geometry" />
        </mxCell>
        <mxCell id="3tNAwGUX28gLjgbRkF9K-10" style="edgeStyle=orthogonalEdgeStyle;rounded=0;orthogonalLoop=1;jettySize=auto;html=1;exitX=0.5;exitY=1;exitDx=0;exitDy=0;entryX=0.5;entryY=0;entryDx=0;entryDy=0;fontSize=11;" edge="1" parent="1" source="3tNAwGUX28gLjgbRkF9K-7" target="3tNAwGUX28gLjgbRkF9K-9">
          <mxGeometry relative="1" as="geometry" />
        </mxCell>
        <mxCell id="3tNAwGUX28gLjgbRkF9K-7" value="&lt;pre style=&quot;background-color: #2b2b2b ; color: #a9b7c6 ; font-family: &amp;#34;jetbrains mono&amp;#34; , monospace ; font-size: 9.8pt&quot;&gt;&lt;pre style=&quot;font-family: &amp;#34;jetbrains mono&amp;#34; , monospace ; font-size: 9.8pt&quot;&gt;loader.iterator()&lt;/pre&gt;&lt;pre style=&quot;font-family: &amp;#34;jetbrains mono&amp;#34; , monospace ; font-size: 9.8pt&quot;&gt;&lt;pre style=&quot;font-family: &amp;#34;jetbrains mono&amp;#34; , monospace ; font-size: 9.8pt&quot;&gt;LazyIterator.interator()&lt;/pre&gt;&lt;/pre&gt;&lt;/pre&gt;" style="rounded=0;whiteSpace=wrap;html=1;" vertex="1" parent="1">
          <mxGeometry x="170" y="670" width="290" height="60" as="geometry" />
        </mxCell>
        <mxCell id="3tNAwGUX28gLjgbRkF9K-9" value="&lt;pre style=&quot;background-color: #2b2b2b ; color: #a9b7c6 ; font-family: &amp;#34;jetbrains mono&amp;#34; , monospace ; font-size: 9.8pt&quot;&gt;&lt;pre style=&quot;font-family: &amp;#34;jetbrains mono&amp;#34; , monospace ; font-size: 9.8pt&quot;&gt;acc = null&lt;/pre&gt;&lt;pre style=&quot;font-family: &amp;#34;jetbrains mono&amp;#34; , monospace ; font-size: 9.8pt&quot;&gt;nextService()&lt;/pre&gt;&lt;pre style=&quot;font-family: &amp;#34;jetbrains mono&amp;#34; , monospace ; font-size: 9.8pt&quot;&gt;&lt;pre style=&quot;font-family: &amp;#34;jetbrains mono&amp;#34; , monospace ; font-size: 9.8pt&quot;&gt;hasNextService()&lt;/pre&gt;&lt;pre style=&quot;font-family: &amp;#34;jetbrains mono&amp;#34; , monospace ; font-size: 9.8pt&quot;&gt;class.forname(nextname)&lt;/pre&gt;&lt;/pre&gt;&lt;/pre&gt;" style="rounded=0;whiteSpace=wrap;html=1;" vertex="1" parent="1">
          <mxGeometry x="170" y="800" width="290" height="120" as="geometry" />
        </mxCell>
        <mxCell id="3tNAwGUX28gLjgbRkF9K-11" value="&lt;pre style=&quot;background-color: #2b2b2b ; color: #a9b7c6 ; font-family: &amp;quot;jetbrains mono&amp;quot; , monospace ; font-size: 9.8pt&quot;&gt;Class&amp;lt;&lt;span style=&quot;color: #507874&quot;&gt;S&lt;/span&gt;&amp;gt; &lt;span style=&quot;color: #9876aa&quot;&gt;service&lt;/span&gt;&lt;span style=&quot;color: #cc7832&quot;&gt;;&lt;br&gt;&lt;/span&gt;ClassLoader &lt;span style=&quot;color: #9876aa&quot;&gt;loader&lt;/span&gt;&lt;span style=&quot;color: #cc7832&quot;&gt;;&lt;br&gt;&lt;/span&gt;Enumeration&amp;lt;URL&amp;gt; &lt;span style=&quot;color: #9876aa&quot;&gt;configs &lt;/span&gt;= &lt;span style=&quot;color: #cc7832&quot;&gt;null;&lt;br&gt;&lt;/span&gt;Iterator&amp;lt;String&amp;gt; &lt;span style=&quot;color: #9876aa&quot;&gt;pending &lt;/span&gt;= &lt;span style=&quot;color: #cc7832&quot;&gt;null;&lt;br&gt;&lt;/span&gt;String &lt;span style=&quot;color: #9876aa&quot;&gt;nextName &lt;/span&gt;= &lt;span style=&quot;color: #cc7832&quot;&gt;null;&lt;/span&gt;&lt;/pre&gt;" style="text;whiteSpace=wrap;html=1;fontSize=11;" vertex="1" parent="1">
          <mxGeometry x="520" y="650" width="280" height="110" as="geometry" />
        </mxCell>
        <mxCell id="3tNAwGUX28gLjgbRkF9K-12" value="" style="shape=curlyBracket;whiteSpace=wrap;html=1;rounded=1;fontSize=11;align=left;" vertex="1" parent="1">
          <mxGeometry x="480" y="630" width="20" height="150" as="geometry" />
        </mxCell>
        <mxCell id="3tNAwGUX28gLjgbRkF9K-13" value="&lt;meta charset=&quot;utf-8&quot;&gt;&lt;pre style=&quot;color: rgb(169 , 183 , 198) ; font-size: 9.8pt ; font-style: normal ; font-weight: 400 ; letter-spacing: normal ; text-align: center ; text-indent: 0px ; text-transform: none ; word-spacing: 0px ; background-color: rgb(43 , 43 , 43) ; font-family: &amp;quot;jetbrains mono&amp;quot; , monospace&quot;&gt;LazyIterator&lt;/pre&gt;" style="text;whiteSpace=wrap;html=1;fontSize=11;" vertex="1" parent="1">
          <mxGeometry x="560" y="610" width="120" height="50" as="geometry" />
        </mxCell>
        <mxCell id="3tNAwGUX28gLjgbRkF9K-15" value="&lt;pre style=&quot;font-style: normal ; font-weight: 400 ; letter-spacing: normal ; text-indent: 0px ; text-transform: none ; word-spacing: 0px ; color: rgb(169 , 183 , 198) ; font-size: 9.8pt ; text-align: center ; background-color: rgb(43 , 43 , 43) ; font-family: &amp;#34;jetbrains mono&amp;#34; , monospace&quot;&gt;ServiceLoader&lt;/pre&gt;" style="text;whiteSpace=wrap;html=1;fontSize=11;" vertex="1" parent="1">
          <mxGeometry x="620" y="370" width="120" height="50" as="geometry" />
        </mxCell>
        <mxCell id="3tNAwGUX28gLjgbRkF9K-16" value="&lt;font style=&quot;font-size: 11px&quot;&gt;是一个延迟加载的类，重写了next/hasNext()等方法&lt;/font&gt;" style="text;strokeColor=none;fillColor=none;html=1;fontSize=24;fontStyle=1;verticalAlign=middle;align=center;" vertex="1" parent="1">
          <mxGeometry x="600" y="750" width="100" height="40" as="geometry" />
        </mxCell>
      </root>
    </mxGraphModel>
  </diagram>
</mxfile>
